<svg width="23" height="23" viewBox="0 0 23 23" fill="none" xmlns="http://www.w3.org/2000/svg">
<path d="M20.5005 10.153L19.2077 9.91488V7.1189C19.2069 6.4043 18.9227 5.71921 18.4174 5.21392C17.9121 4.70862 17.227 4.42439 16.5124 4.42358H2.53809C1.94259 4.42426 1.37168 4.66112 0.950606 5.0822C0.529529 5.50328 0.29267 6.07418 0.291992 6.66968V15.0117C0.292396 15.369 0.434511 15.7115 0.687158 15.9642C0.939805 16.2168 1.28235 16.3589 1.63965 16.3593H2.10994C2.17885 16.9692 2.46995 17.5324 2.92768 17.9413C3.38541 18.3502 3.9777 18.5763 4.59149 18.5763C5.20527 18.5763 5.79756 18.3502 6.25529 17.9413C6.71302 17.5324 7.00413 16.9692 7.07304 16.3593H15.9314C16.0002 16.9693 16.2913 17.5325 16.7491 17.9415C17.2068 18.3504 17.7991 18.5765 18.4129 18.5765C19.0268 18.5765 19.6191 18.3504 20.0768 17.9415C20.5346 17.5325 20.8256 16.9693 20.8945 16.3593H21.3604C21.7176 16.3589 22.0602 16.2168 22.3128 15.9642C22.5655 15.7115 22.7076 15.369 22.708 15.0117V12.8038C22.7081 12.1735 22.4872 11.5632 22.0839 11.0789C21.6806 10.5946 21.1204 10.267 20.5005 10.153ZM14.1579 9.73968V7.5877H18.3093V9.73982L14.1579 9.73968ZM9.21649 9.73968V7.5877H13.2595V9.73982L9.21649 9.73968ZM13.2595 10.6381V15.4609H9.21649V10.6383L13.2595 10.6381ZM8.31805 9.73968H4.10775C3.98865 9.73955 3.87446 9.69218 3.79024 9.60797C3.70603 9.52375 3.65866 9.40956 3.65853 9.29046V8.03692C3.65866 7.91782 3.70603 7.80364 3.79024 7.71942C3.87446 7.6352 3.98865 7.58783 4.10775 7.5877H8.31805V9.73982V9.73968ZM4.59146 17.6779C4.27517 17.6779 3.96598 17.5841 3.70299 17.4084C3.44 17.2326 3.23502 16.9829 3.11398 16.6906C2.99294 16.3984 2.96127 16.0769 3.02297 15.7667C3.08468 15.4564 3.23699 15.1715 3.46065 14.9478C3.6843 14.7242 3.96925 14.5719 4.27947 14.5102C4.58969 14.4485 4.91124 14.4801 5.20346 14.6012C5.49568 14.7222 5.74544 14.9272 5.92117 15.1902C6.09689 15.4532 6.19068 15.7624 6.19068 16.0787C6.19018 16.5026 6.02154 16.9091 5.72173 17.2089C5.42193 17.5087 5.01545 17.6774 4.59146 17.6779ZM4.59146 13.581C4.03669 13.5817 3.4979 13.7668 3.05978 14.1071C2.62167 14.4475 2.30908 14.9238 2.17116 15.4611H1.63965C1.52055 15.461 1.40636 15.4136 1.32215 15.3294C1.23793 15.2452 1.19056 15.131 1.19043 15.0119V6.6699C1.19083 6.31261 1.33295 5.97006 1.5856 5.71741C1.83824 5.46476 2.18079 5.32265 2.53809 5.32225H16.5124C16.914 5.3228 17.304 5.45769 17.6201 5.70546C17.9363 5.95323 18.1604 6.29964 18.257 6.68953H4.10775C3.75045 6.68994 3.4079 6.83205 3.15526 7.0847C2.90261 7.33735 2.76049 7.67989 2.76009 8.03719V9.29087C2.76049 9.64817 2.90261 9.99071 3.15526 10.2434C3.4079 10.496 3.75045 10.6381 4.10775 10.6385H8.31805V15.4609H7.01181C6.87389 14.9236 6.5613 14.4473 6.12317 14.1069C5.68505 13.7666 5.14624 13.5815 4.59146 13.5808V13.581ZM18.413 17.6779C18.0967 17.6779 17.7875 17.5841 17.5245 17.4084C17.2615 17.2326 17.0565 16.9829 16.9355 16.6906C16.8145 16.3984 16.7828 16.0769 16.8445 15.7667C16.9062 15.4564 17.0585 15.1715 17.2822 14.9478C17.5058 14.7242 17.7908 14.5719 18.101 14.5102C18.4112 14.4485 18.7328 14.4801 19.025 14.6012C19.3172 14.7222 19.567 14.9272 19.7427 15.1902C19.9184 15.4532 20.0122 15.7624 20.0122 16.0787C20.0117 16.5026 19.843 16.9091 19.5432 17.2089C19.2434 17.5087 18.837 17.6774 18.413 17.6779ZM21.8096 15.0117C21.8094 15.1308 21.7621 15.245 21.6779 15.3292C21.5936 15.4134 21.4795 15.4608 21.3604 15.4609H20.8333C20.6961 14.9232 20.3836 14.4465 19.9454 14.1061C19.5071 13.7657 18.9679 13.5808 18.413 13.5808C17.858 13.5808 17.3189 13.7657 16.8806 14.1061C16.4423 14.4465 16.1299 14.9232 15.9926 15.4609H14.1579V10.6383H18.6753C18.7848 10.7191 18.9112 10.7739 19.0451 10.7986L20.3379 11.0367C20.7511 11.1127 21.1246 11.3311 21.3935 11.654C21.6623 11.9769 21.8096 12.3837 21.8096 12.8039V15.0117Z" fill="white"/>
</svg>
