<svg width="76" height="33" viewBox="0 0 76 33" fill="none" xmlns="http://www.w3.org/2000/svg">
<path d="M17.9937 14.849L16.859 14.64V12.1859C16.8583 11.5587 16.6088 10.9574 16.1653 10.5139C15.7218 10.0704 15.1205 9.8209 14.4933 9.82019H2.22778C1.70511 9.82079 1.20401 10.0287 0.834425 10.3983C0.464838 10.7679 0.256942 11.269 0.256348 11.7916V19.1135C0.256702 19.4271 0.381439 19.7278 0.603192 19.9496C0.824944 20.1713 1.1256 20.296 1.43921 20.2964H1.85199C1.91247 20.8317 2.16798 21.326 2.56974 21.6849C2.97149 22.0439 3.49136 22.2423 4.03009 22.2423C4.56882 22.2423 5.08868 22.0439 5.49044 21.6849C5.8922 21.326 6.1477 20.8317 6.20819 20.2964H13.9833C14.0437 20.8318 14.2992 21.3261 14.701 21.6851C15.1028 22.044 15.6227 22.2424 16.1614 22.2424C16.7002 22.2424 17.2201 22.044 17.6218 21.6851C18.0236 21.3261 18.2791 20.8318 18.3395 20.2964H18.7484C19.062 20.296 19.3627 20.1713 19.5844 19.9496C19.8062 19.7278 19.9309 19.4271 19.9313 19.1135V17.1756C19.9313 16.6225 19.7375 16.0868 19.3835 15.6617C19.0295 15.2366 18.5378 14.949 17.9937 14.849ZM12.4267 14.4862V12.5974H16.0704V14.4863L12.4267 14.4862ZM8.08953 14.4862V12.5974H11.6381V14.4863L8.08953 14.4862ZM11.6381 15.2748V19.5078H8.08953V15.2749L11.6381 15.2748ZM7.30096 14.4862H3.6055C3.50097 14.4861 3.40074 14.4445 3.32682 14.3706C3.25291 14.2967 3.21133 14.1965 3.21121 14.0919V12.9917C3.21133 12.8871 3.25291 12.7869 3.32682 12.713C3.40074 12.6391 3.50097 12.5975 3.6055 12.5974H7.30096V14.4863V14.4862ZM4.03007 21.4537C3.75245 21.4537 3.48107 21.3714 3.25024 21.2172C3.01941 21.0629 2.83949 20.8437 2.73325 20.5872C2.62701 20.3307 2.59922 20.0485 2.65338 19.7762C2.70754 19.5039 2.84122 19.2538 3.03753 19.0575C3.23384 18.8612 3.48394 18.7275 3.75623 18.6734C4.02851 18.6192 4.31074 18.647 4.56723 18.7532C4.82371 18.8595 5.04294 19.0394 5.19717 19.2702C5.35141 19.501 5.43373 19.7724 5.43373 20.05C5.43329 20.4222 5.28527 20.779 5.02212 21.0421C4.75898 21.3052 4.40221 21.4533 4.03007 21.4537ZM4.03007 17.8578C3.54314 17.8585 3.07023 18.0209 2.68568 18.3196C2.30114 18.6183 2.02678 19.0364 1.90573 19.508H1.43921C1.33467 19.5079 1.23445 19.4663 1.16053 19.3924C1.08661 19.3185 1.04504 19.2183 1.04492 19.1137V11.7918C1.04528 11.4782 1.17001 11.1776 1.39177 10.9558C1.61352 10.7341 1.91418 10.6093 2.22778 10.609H14.4933C14.8458 10.6094 15.1881 10.7278 15.4656 10.9453C15.743 11.1628 15.9398 11.4668 16.0245 11.8091H3.6055C3.2919 11.8094 2.99124 11.9341 2.76948 12.1559C2.54773 12.3777 2.42299 12.6783 2.42264 12.9919V14.0923C2.42299 14.4059 2.54773 14.7066 2.76948 14.9283C2.99124 15.1501 3.2919 15.2748 3.6055 15.2752H7.30096V19.5079H6.15445C6.0334 19.0362 5.75903 18.6182 5.37448 18.3194C4.98993 18.0207 4.51701 17.8583 4.03007 17.8577V17.8578ZM16.1615 21.4537C15.8838 21.4537 15.6125 21.3714 15.3816 21.2172C15.1508 21.0629 14.9709 20.8437 14.8646 20.5872C14.7584 20.3307 14.7306 20.0485 14.7848 19.7762C14.8389 19.5039 14.9726 19.2538 15.1689 19.0575C15.3652 18.8612 15.6153 18.7275 15.8876 18.6734C16.1599 18.6192 16.4421 18.647 16.6986 18.7532C16.9551 18.8595 17.1743 19.0394 17.3286 19.2702C17.4828 19.501 17.5651 19.7724 17.5651 20.05C17.5647 20.4222 17.4166 20.779 17.1535 21.0421C16.8904 21.3052 16.5336 21.4533 16.1615 21.4537ZM19.1427 19.1136C19.1426 19.2181 19.101 19.3183 19.0271 19.3923C18.9532 19.4662 18.8529 19.5077 18.7484 19.5079H18.2858C18.1653 19.0359 17.8911 18.6175 17.5065 18.3187C17.1218 18.0199 16.6486 17.8577 16.1615 17.8577C15.6744 17.8577 15.2011 18.0199 14.8165 18.3187C14.4318 18.6175 14.1576 19.0359 14.0371 19.5079H12.4267V15.2749H16.3917C16.4878 15.3459 16.5988 15.394 16.7163 15.4156L17.851 15.6246C18.2137 15.6914 18.5415 15.8831 18.7775 16.1665C19.0135 16.4498 19.1427 16.8069 19.1427 17.1757V19.1136Z" fill="black"/>
<g clip-path="url(#clip0_58_3181)">
<path d="M49.9531 14.1535L48.1509 13.8216V9.92395C48.1498 8.92779 47.7535 7.97276 47.0491 7.26837C46.3448 6.56398 45.3897 6.16775 44.3936 6.16663H24.9131C24.083 6.16757 23.2871 6.49776 22.7001 7.08475C22.1131 7.67174 21.7829 8.4676 21.782 9.29773V20.9266C21.7825 21.4247 21.9807 21.9022 22.3329 22.2544C22.685 22.6066 23.1626 22.8047 23.6606 22.8053H24.3162C24.4123 23.6555 24.8181 24.4406 25.4562 25.0106C26.0943 25.5807 26.9199 25.8958 27.7756 25.8958C28.6312 25.8958 29.4569 25.5807 30.095 25.0106C30.733 24.4406 31.1388 23.6555 31.2349 22.8053H43.5836C43.6796 23.6556 44.0854 24.4407 44.7235 25.0108C45.3616 25.5809 46.1873 25.8961 47.043 25.8961C47.8987 25.8961 48.7244 25.5809 49.3625 25.0108C50.0006 24.4407 50.4063 23.6556 50.5023 22.8053H51.1517C51.6498 22.8047 52.1273 22.6066 52.4795 22.2544C52.8317 21.9022 53.0298 21.4247 53.0304 20.9266V17.8488C53.0305 16.9702 52.7226 16.1194 52.1604 15.4443C51.5982 14.7692 50.8172 14.3125 49.9531 14.1535ZM41.1113 13.5774V10.5775H46.8984V13.5776L41.1113 13.5774ZM34.2229 13.5774V10.5775H39.8589V13.5776L34.2229 13.5774ZM39.8589 14.8298V21.5529H34.2229V14.83L39.8589 14.8298ZM32.9705 13.5774H27.1012C26.9352 13.5772 26.776 13.5112 26.6586 13.3938C26.5412 13.2764 26.4752 13.1172 26.475 12.9512V11.2037C26.4752 11.0377 26.5412 10.8785 26.6586 10.7611C26.776 10.6437 26.9352 10.5777 27.1012 10.5775H32.9705V13.5776V13.5774ZM27.7755 24.6434C27.3346 24.6434 26.9036 24.5126 26.537 24.2677C26.1704 24.0227 25.8846 23.6745 25.7159 23.2672C25.5472 22.8598 25.503 22.4116 25.589 21.9791C25.6751 21.5467 25.8874 21.1494 26.1992 20.8377C26.5109 20.5259 26.9082 20.3136 27.3406 20.2275C27.7731 20.1415 28.2213 20.1857 28.6287 20.3544C29.036 20.5231 29.3842 20.8089 29.6292 21.1755C29.8741 21.5421 30.0049 21.9731 30.0049 22.414C30.0042 23.0051 29.7691 23.5717 29.3512 23.9897C28.9332 24.4076 28.3666 24.6427 27.7755 24.6434ZM27.7755 18.9323C27.0022 18.9333 26.2511 19.1913 25.6403 19.6657C25.0296 20.1401 24.5938 20.8041 24.4016 21.5532H23.6606C23.4946 21.553 23.3354 21.487 23.218 21.3696C23.1006 21.2522 23.0346 21.093 23.0344 20.927V9.29804C23.035 8.79996 23.2331 8.32245 23.5853 7.97025C23.9375 7.61805 24.415 7.41994 24.9131 7.41938H44.3936C44.9535 7.42015 45.4971 7.6082 45.9378 7.95359C46.3785 8.29899 46.691 8.78189 46.8256 9.32541H27.1012C26.6031 9.32597 26.1256 9.52408 25.7734 9.87628C25.4212 10.2285 25.2231 10.706 25.2226 11.2041V12.9517C25.2231 13.4498 25.4212 13.9273 25.7734 14.2795C26.1256 14.6317 26.6031 14.8298 27.1012 14.8304H32.9705V21.5529H31.1496C30.9573 20.8038 30.5215 20.1399 29.9108 19.6654C29.3 19.191 28.5489 18.933 27.7755 18.932V18.9323ZM47.043 24.6434C46.6021 24.6434 46.1711 24.5126 45.8045 24.2677C45.4379 24.0227 45.1521 23.6745 44.9834 23.2672C44.8147 22.8598 44.7705 22.4116 44.8565 21.9791C44.9425 21.5467 45.1549 21.1494 45.4667 20.8377C45.7784 20.5259 46.1757 20.3136 46.6081 20.2275C47.0406 20.1415 47.4888 20.1857 47.8962 20.3544C48.3035 20.5231 48.6517 20.8089 48.8967 21.1755C49.1416 21.5421 49.2724 21.9731 49.2724 22.414C49.2717 23.0051 49.0366 23.5717 48.6186 23.9896C48.2007 24.4076 47.6341 24.6427 47.043 24.6434ZM51.778 20.9267C51.7778 21.0927 51.7117 21.2519 51.5943 21.3693C51.4769 21.4867 51.3178 21.5527 51.1517 21.5529H50.4171C50.2257 20.8033 49.7902 20.1388 49.1792 19.6643C48.5683 19.1897 47.8167 18.9321 47.043 18.9321C46.2694 18.9321 45.5178 19.1897 44.9069 19.6643C44.2959 20.1388 43.8604 20.8033 43.669 21.5529H41.1113V14.83H47.4088C47.5614 14.9427 47.7376 15.0191 47.9242 15.0535L49.7265 15.3854C50.3025 15.4914 50.8231 15.7959 51.1979 16.246C51.5727 16.696 51.778 17.2632 51.778 17.8489V20.9267Z" fill="black"/>
</g>
<path d="M73.8062 14.849L72.6715 14.64V12.1859C72.6708 11.5587 72.4213 10.9574 71.9778 10.5139C71.5343 10.0704 70.933 9.8209 70.3058 9.82019H58.0403C57.5176 9.82079 57.0165 10.0287 56.6469 10.3983C56.2773 10.7679 56.0694 11.269 56.0688 11.7916V19.1135C56.0692 19.4271 56.1939 19.7278 56.4157 19.9496C56.6374 20.1713 56.9381 20.296 57.2517 20.2964H57.6645C57.725 20.8317 57.9805 21.326 58.3822 21.6849C58.784 22.0439 59.3039 22.2423 59.8426 22.2423C60.3813 22.2423 60.9012 22.0439 61.3029 21.6849C61.7047 21.326 61.9602 20.8317 62.0207 20.2964H69.7958C69.8562 20.8318 70.1117 21.3261 70.5135 21.6851C70.9153 22.044 71.4352 22.2424 71.9739 22.2424C72.5127 22.2424 73.0326 22.044 73.4343 21.6851C73.8361 21.3261 74.0916 20.8318 74.152 20.2964H74.5609C74.8745 20.296 75.1752 20.1713 75.3969 19.9496C75.6187 19.7278 75.7434 19.4271 75.7438 19.1135V17.1756C75.7438 16.6225 75.55 16.0868 75.196 15.6617C74.842 15.2366 74.3503 14.949 73.8062 14.849ZM68.2392 14.4862V12.5974H71.8829V14.4863L68.2392 14.4862ZM63.902 14.4862V12.5974H67.4506V14.4863L63.902 14.4862ZM67.4506 15.2748V19.5078H63.902V15.2749L67.4506 15.2748ZM63.1135 14.4862H59.418C59.3135 14.4861 59.2132 14.4445 59.1393 14.3706C59.0654 14.2967 59.0238 14.1965 59.0237 14.0919V12.9917C59.0238 12.8871 59.0654 12.7869 59.1393 12.713C59.2132 12.6391 59.3135 12.5975 59.418 12.5974H63.1135V14.4863V14.4862ZM59.8426 21.4537C59.565 21.4537 59.2936 21.3714 59.0627 21.2172C58.8319 21.0629 58.652 20.8437 58.5458 20.5872C58.4395 20.3307 58.4117 20.0485 58.4659 19.7762C58.52 19.5039 58.6537 19.2538 58.85 19.0575C59.0463 18.8612 59.2964 18.7275 59.5687 18.6734C59.841 18.6192 60.1232 18.647 60.3797 18.7532C60.6362 18.8595 60.8554 19.0394 61.0097 19.2702C61.1639 19.501 61.2462 19.7724 61.2462 20.05C61.2458 20.4222 61.0978 20.779 60.8346 21.0421C60.5715 21.3052 60.2147 21.4533 59.8426 21.4537ZM59.8426 17.8578C59.3556 17.8585 58.8827 18.0209 58.4982 18.3196C58.1136 18.6183 57.8393 19.0364 57.7182 19.508H57.2517C57.1472 19.5079 57.047 19.4663 56.973 19.3924C56.8991 19.3185 56.8575 19.2183 56.8574 19.1137V11.7918C56.8578 11.4782 56.9825 11.1776 57.2043 10.9558C57.426 10.7341 57.7267 10.6093 58.0403 10.609H70.3058C70.6583 10.6094 71.0006 10.7278 71.2781 10.9453C71.5555 11.1628 71.7523 11.4668 71.837 11.8091H59.418C59.1044 11.8094 58.8037 11.9341 58.582 12.1559C58.3602 12.3777 58.2355 12.6783 58.2351 12.9919V14.0923C58.2355 14.4059 58.3602 14.7066 58.582 14.9283C58.8037 15.1501 59.1044 15.2748 59.418 15.2752H63.1135V19.5079H61.9669C61.8459 19.0362 61.5715 18.6182 61.187 18.3194C60.8024 18.0207 60.3295 17.8583 59.8426 17.8577V17.8578ZM71.974 21.4537C71.6963 21.4537 71.425 21.3714 71.1941 21.2172C70.9633 21.0629 70.7834 20.8437 70.6771 20.5872C70.5709 20.3307 70.5431 20.0485 70.5973 19.7762C70.6514 19.5039 70.7851 19.2538 70.9814 19.0575C71.1777 18.8612 71.4278 18.7275 71.7001 18.6734C71.9724 18.6192 72.2546 18.647 72.5111 18.7532C72.7676 18.8595 72.9868 19.0394 73.1411 19.2702C73.2953 19.501 73.3776 19.7724 73.3776 20.05C73.3772 20.4222 73.2291 20.779 72.966 21.0421C72.7029 21.3052 72.3461 21.4533 71.974 21.4537ZM74.9552 19.1136C74.9551 19.2181 74.9135 19.3183 74.8396 19.3923C74.7657 19.4662 74.6654 19.5077 74.5609 19.5079H74.0983C73.9778 19.0359 73.7036 18.6175 73.319 18.3187C72.9343 18.0199 72.4611 17.8577 71.974 17.8577C71.4869 17.8577 71.0136 18.0199 70.629 18.3187C70.2443 18.6175 69.9701 19.0359 69.8496 19.5079H68.2392V15.2749H72.2042C72.3003 15.3459 72.4113 15.394 72.5288 15.4156L73.6635 15.6246C74.0262 15.6914 74.354 15.8831 74.59 16.1665C74.826 16.4498 74.9552 16.8069 74.9552 17.1757V19.1136Z" fill="black"/>
<defs>
<clipPath id="clip0_58_3181">
<rect width="32.0625" height="32.0625" transform="translate(21.375)"/>
</clipPath>
</defs>
</svg>
